<?xml version="1.0" encoding="UTF-8"?>
<svg width="18px" height="23px" viewBox="0 0 18 23" version="1.1" xmlns="http://www.w3.org/2000/svg" xmlns:xlink="http://www.w3.org/1999/xlink">
    <title>1446F6FA-09D1-442B-A91F-C2EA55C4F48F</title>
    <g id="Page-1" stroke="none" stroke-width="1" fill="none" fill-rule="evenodd">
        <path d="M3.37136575,0.548169495 L3.76863737,0.922399739 L4.05056765,0.625875287 C4.85614561,-0.221403562 6.21358391,-0.200034081 6.9920927,0.672182263 L7.21236113,0.918963965 L7.66782865,0.512219817 C8.46616292,-0.200713114 9.68428001,-0.158752948 10.4316637,0.607424931 L10.7396347,0.923140311 L11.1116216,0.564385176 C11.891473,-0.187726605 13.1284048,-0.182110171 13.9013941,0.577052464 L14.2928401,0.961496562 C14.6442855,0.387196088 15.2773892,0.00397029708 16,0.00397029708 C17.1045695,0.00397029708 18,0.899400797 18,2.0039703 L18,20.0039703 C18,21.1085398 17.1045695,22.0039703 16,22.0039703 L2,22.0039703 C0.8954305,22.0039703 0,21.1085398 0,20.0039703 L0,2.0039703 C0,0.250809346 2.09523919,-0.653942947 3.37136575,0.548169495 Z M16,17.003 L2,17.003 L2,20.0039703 L16,20.0039703 L16,17.003 Z M16,2.0039703 L14.2709351,3.74322811 L12.5,2.0039703 L10.6965942,3.74322811 L9,2.0039703 L7.05239868,3.74322811 L5.5,2.0039703 L3.84634399,3.74322811 L2,2.0039703 L2,15.003 L16,15.003 L16,2.0039703 Z M8.3326416,6.0039703 C8.88492635,6.0039703 9.3326416,6.45168555 9.3326416,7.0039703 C9.3326416,7.55625505 8.88492635,8.0039703 8.3326416,8.0039703 L5,8.0039703 C4.44771525,8.0039703 4,7.55625505 4,7.0039703 C4,6.45168555 4.44771525,6.0039703 5,6.0039703 L8.3326416,6.0039703 Z" id="srm.mask.shape" fill="#000000" fill-rule="nonzero"></path>
    </g>
</svg>