<?xml version="1.0" encoding="UTF-8"?>
<svg width="16px" height="24px" viewBox="0 0 16 24" version="1.1" xmlns="http://www.w3.org/2000/svg" xmlns:xlink="http://www.w3.org/1999/xlink">
    <title>9FB78EC2-F266-488C-9C3F-84EC6B5EC72D</title>
    <g id="Page-1" stroke="none" stroke-width="1" fill="none" fill-rule="evenodd">
        <path d="M14,0 C15.1045695,0 16,0.976833273 16,2.18181818 L16,21.8181818 C16,23.0231667 15.1045695,24 14,24 L2,24 C0.8954305,24 0,23.0231667 0,21.8181818 L0,2.18181818 C0,0.976833273 0.8954305,0 2,0 L14,0 Z M14,2 L2,2 L2,22 L14,22 L14,2 Z M6.5,12 C6.22385763,12 6,11.7761424 6,11.5 C6,11.2238576 6.22385763,11 6.5,11 L7,11 C7,10.4477153 7.44771525,10 8,10 C8.55228475,10 9,10.4477153 9,11 L9,11 L9.5,11 C9.77614237,11 10,11.2238576 10,11.5 C10,11.7761424 9.77614237,12 9.5,12 L6.5,12 Z" id="srm.mask.shape" fill="#000000" fill-rule="nonzero"></path>
    </g>
</svg>