<?xml version="1.0" encoding="UTF-8"?>
<svg width="18px" height="21px" viewBox="0 0 18 21" version="1.1" xmlns="http://www.w3.org/2000/svg" xmlns:xlink="http://www.w3.org/1999/xlink">
    <title>2BA5F2AC-C4AE-40FD-A525-FA9EF5F42826</title>
    <g id="Page-1" stroke="none" stroke-width="1" fill="none" fill-rule="evenodd">
        <path d="M8.99994976,11 C15.0478528,11 18.141023,13.4818866 17.9949439,20.0223292 C17.9826118,20.5744762 17.5250111,21.0120827 16.9728641,20.9997507 C16.420717,20.9874186 15.9831105,20.5298179 15.9954426,19.9776708 C16.1173803,14.5181134 13.8803881,13 8.99994976,13 C4.3776332,13 2.12226216,14.53731 1.99975572,20.0223292 C1.98742366,20.5744762 1.52982293,21.0120827 0.977675878,20.9997507 C0.425528828,20.9874186 -0.012077687,20.5298179 0.000254370573,19.9776708 C0.145764735,13.46269 3.22369018,11 8.99994976,11 Z M9.00000504,0 C11.7614288,0 14.000005,2.23857625 14.000005,5 C14.000005,7.76142375 11.7614288,10 9.00000504,10 C6.23858129,10 4.00000504,7.76142375 4.00000504,5 C4.00000504,2.23857625 6.23858129,0 9.00000504,0 Z M9.00000504,2 C7.34315079,2 6.00000504,3.34314575 6.00000504,5 C6.00000504,6.65685425 7.34315079,8 9.00000504,8 C10.6568593,8 12.000005,6.65685425 12.000005,5 C12.000005,3.34314575 10.6568593,2 9.00000504,2 Z" id="srm.mask.shape" fill="#000000" fill-rule="nonzero"></path>
    </g>
</svg>