<?xml version="1.0" encoding="UTF-8"?>
<svg width="19px" height="20px" viewBox="0 0 19 20" version="1.1" xmlns="http://www.w3.org/2000/svg" xmlns:xlink="http://www.w3.org/1999/xlink">
    <title>4806B1E7-0ABC-43A8-BA04-50B0604953A9</title>
    <defs>
        <path d="M7.99975564,16 C7.99975564,16 5.7939921,14.3012618 5.01797716,13 C4.24196223,11.6987382 2.7714532,10.0410095 3.03012487,9 C3.28879651,7.95899054 4.24196223,7.63091493 5.01797724,8.41167212 C5.79399229,9.19242921 6.31673914,10.8840694 6.83408253,10.623817 C7.35142594,10.3635647 6.96341818,7.89116721 6.44607506,6.45977918 C5.92873189,5.0283912 5.38935737,2.00000017 6.44607505,2 C7.50279274,1.99999991 7.50279254,3 7.99975564,4.5 C8.49671876,5.99999999 8.10871115,7.99999931 8.49671874,8 C8.88472632,8.00000059 9.03279134,7.65063082 9.03279144,7 C9.03279148,6.82318548 9.06724813,6.67374541 9.13720714,6.54985954 C9.32467886,6.21787805 9.76709251,6.06940091 10.4845711,6.06940079 C11.469792,6.06940079 10.9815342,8.00000009 11.4784973,8 C11.9754604,8 11.9754608,8.04100937 11.9754604,7 C11.9754601,5.95899063 12.4362836,6.06940096 13.4302098,6.06940079 C14.424136,6.06940079 13.942933,7.9999999 14.4602759,8 C14.9776189,8.00000009 14.4602759,7.00000008 14.957239,7 C15.4542021,7 15.9511647,7.15772862 15.9511652,9.5 C15.9511658,11.8422714 16.2302174,11.9589904 15.4542021,13 C14.6781868,14.0410096 13.9633128,15 13.9633128,15 C13.9633128,15 13.9633128,16 13.4302098,16 C12.8971069,16.0000001 12.6221399,14.9999999 11.9754604,15 C11.3287809,15.0000001 10.9815342,16 10.9815342,16 L7.99975564,16 Z M13.9633131,14 L13.9633131,10 L12.9693869,10 L12.9693869,14 L13.9633131,14 Z M10.9815345,13 C10.9815345,13.2708838 11.2120593,14 11.4784976,14 C11.7529627,14 11.9754607,13.2754211 11.9754607,13 L11.9754607,11 C11.9754607,10.7291162 11.7449358,10 11.4784976,10 C11.2040324,10 10.9815345,10.7245789 10.9815345,11 L10.9815345,13 Z M8.99368207,13 C8.99368207,13.2708838 9.22420694,14 9.49064517,14 C9.76511031,14 9.98760827,13.2754211 9.98760827,13 L9.98760827,11 C9.98760827,10.7291162 9.75708339,10 9.49064517,10 C9.21618003,10 8.99368207,10.7245789 8.99368207,11 L8.99368207,13 Z" id="path-1"></path>
        <filter x="-34.5%" y="-24.0%" width="169.1%" height="163.3%" filterUnits="objectBoundingBox" id="filter-2">
            <feMorphology radius="1" operator="dilate" in="SourceAlpha" result="shadowSpreadOuter1"></feMorphology>
            <feOffset dx="0" dy="1" in="shadowSpreadOuter1" result="shadowOffsetOuter1"></feOffset>
            <feGaussianBlur stdDeviation="1" in="shadowOffsetOuter1" result="shadowBlurOuter1"></feGaussianBlur>
            <feComposite in="shadowBlurOuter1" in2="SourceAlpha" operator="out" result="shadowBlurOuter1"></feComposite>
            <feColorMatrix values="0 0 0 0 0   0 0 0 0 0   0 0 0 0 0  0 0 0 0.5 0" type="matrix" in="shadowBlurOuter1"></feColorMatrix>
        </filter>
    </defs>
    <g id="Page-1" stroke="none" stroke-width="1" fill="none" fill-rule="evenodd">
        <g id="Pointer">
            <use fill="black" fill-opacity="1" filter="url(#filter-2)" xlink:href="#path-1"></use>
            <path stroke="#000000" stroke-width="1" d="M5.89496357,1.67195226 C7.06648908,1.46418518 7.37217345,1.71652734 7.62498544,2.03453133 C7.87985592,2.35512462 8.03905076,2.84958983 8.21904599,3.48931314 C8.29216902,3.74920064 8.37249648,4.03521842 8.47438477,4.34275121 C8.68914796,4.99097793 8.75266909,5.72670431 8.77699239,6.37187523 L8.777,6.41 C8.91238665,6.16700442 9.05317126,6.01418634 9.20695927,5.90084029 L9.28495049,5.8472531 C9.60061544,5.64491003 9.98749981,5.56940087 10.4845711,5.56940079 C10.9314449,5.56940079 11.2184464,5.77914367 11.4074708,6.10154224 C11.4363411,6.15078314 11.4622394,6.20383793 11.485554,6.25988934 L11.539,6.412 L11.5441482,6.39204369 C11.6095377,6.14903362 11.7165478,5.9887719 11.8429138,5.87209102 L11.9076067,5.81720098 C12.1657417,5.61560904 12.565235,5.56105763 13.1747817,5.56760919 C13.8753964,5.56940079 14.1627576,5.7761119 14.3542447,6.09298062 C14.4426512,6.23927391 14.5046612,6.41954889 14.5505596,6.61227835 L14.585,6.78 L14.641055,6.75870423 C15.2383382,6.53285538 15.4707675,6.56017119 15.6614169,6.67684476 L15.7083958,6.70777998 C15.880684,6.82863957 16.0500794,7.01848027 16.1810145,7.34781858 C16.3379577,7.74257405 16.451165,8.39918677 16.4511652,9.49999987 C16.4511654,10.0806863 16.4686222,10.5226274 16.4825009,10.8752042 C16.5309798,12.1067654 16.5236333,12.4019746 15.855077,13.29883 L15.855077,13.29883 L14.4520284,15.1809933 C14.43296,15.3851891 14.3820103,15.7219049 14.2465751,15.9759557 C13.7881716,16.4419078 13.6246115,16.5 13.4302099,16.5 C13.0530445,16.5000001 12.7211687,16.2375669 12.3979351,15.8626374 C12.2790756,15.7247682 12.1762673,15.5 11.9754605,15.5 C11.5691577,15.5000001 11.4538675,16.1640162 11.4538675,16.1640162 L11.4538675,16.1640162 L7.83143207,16.5 C7.69467498,16.3961386 5.39860612,14.6144538 4.58854181,13.2560962 C4.39461252,12.9309056 4.15588408,12.5830922 3.91278201,12.2282213 C3.08312053,11.017114 2.32976761,9.74513641 2.54488075,8.87942579 C2.72904016,8.13828662 3.18741384,7.69132936 3.70100909,7.53932491 C3.98256205,7.45599605 4.28905547,7.45775084 4.59899255,7.56138339 C4.85854737,7.6481698 5.12355579,7.80862524 5.37260594,8.05919731 C5.71718373,8.40588074 6.02104143,8.91433463 6.29229249,9.3796631 C6.47306999,9.68978507 6.6327081,9.97909586 6.79184785,10.1412744 C6.59028109,9.8618364 6.58274834,9.56421458 6.55175253,9.23157215 C6.47443355,8.40179649 6.24337667,7.36993942 5.97584568,6.62973307 C5.66025675,5.75655989 5.33937754,4.31884982 5.33937753,3.26400792 C5.33937753,2.78762172 5.4091327,2.38235415 5.54292995,2.1035978 C5.63360398,1.91468539 5.75410575,1.77157707 5.89496357,1.67195226 Z" fill="#FFFFFF" fill-rule="evenodd"></path>
        </g>
    </g>
</svg>